<svg width="140" height="22" viewBox="0 0 140 22" fill="none" xmlns="http://www.w3.org/2000/svg">
    <path d="M6.37115 21.4253C5.11663 21.4253 3.94276 21.2834 2.84954 20.9998C1.75632 20.7161 0.806475 20.2994 0 19.7498L1.90866 16.8774C2.91227 17.3916 3.73667 17.7551 4.38185 17.9678C5.04495 18.1629 5.70805 18.2604 6.37115 18.2604C6.99841 18.2604 7.48229 18.1629 7.8228 17.9678C8.18124 17.7551 8.36045 17.4802 8.36045 17.1434C8.36045 16.8774 8.25292 16.6646 8.03786 16.5051C7.84073 16.3455 7.51814 16.2302 7.07009 16.1593L4.40873 15.6806C3.0646 15.4324 2.04307 14.9714 1.34412 14.2976C0.663101 13.6239 0.32259 12.7551 0.32259 11.6912C0.32259 10.7515 0.555571 9.95365 1.02153 9.29762C1.4875 8.62386 2.1506 8.10968 3.01084 7.75507C3.889 7.40046 4.92846 7.22315 6.12921 7.22315C7.09698 7.22315 8.05579 7.35613 9.00563 7.62209C9.95548 7.88805 10.8784 8.27812 11.7745 8.7923L9.78522 11.5317C9.08628 11.1239 8.40526 10.8313 7.74216 10.654C7.09698 10.459 6.4518 10.3615 5.80662 10.3615C5.28689 10.3615 4.87469 10.4412 4.57002 10.6008C4.28328 10.7604 4.1399 10.9909 4.1399 11.2923C4.1399 11.576 4.23847 11.7888 4.43561 11.9306C4.65067 12.0724 5.02703 12.1877 5.56468 12.2763L8.17228 12.7551C9.55224 13.0033 10.5917 13.4643 11.2906 14.138C11.9896 14.8118 12.3391 15.6717 12.3391 16.7178C12.3391 17.6044 12.0792 18.4111 11.5595 19.138C11.0397 19.8473 10.3318 20.4058 9.43575 20.8136C8.53967 21.2214 7.51814 21.4253 6.37115 21.4253Z" fill="white"/>
    <path d="M14.8591 21.1593V7.43592H19.214V9.61677C19.7338 8.83663 20.3342 8.24266 21.0152 7.83486C21.7141 7.42706 22.4848 7.22315 23.3271 7.22315C24.2232 7.22315 25.0117 7.45365 25.6927 7.91464C26.3738 8.37564 26.8845 8.9962 27.225 9.77635C27.7627 8.94301 28.4168 8.31358 29.1875 7.88805C29.9581 7.44478 30.8183 7.22315 31.7682 7.22315C32.6284 7.22315 33.3811 7.42706 34.0263 7.83486C34.6894 8.24266 35.2002 8.81003 35.5586 9.53698C35.935 10.2639 36.1231 11.0973 36.1231 12.037V21.1593H31.7682V12.888C31.7682 12.1966 31.58 11.6469 31.2036 11.2391C30.8273 10.8136 30.3255 10.6008 29.6982 10.6008C29.3039 10.6008 28.9365 10.6895 28.596 10.8668C28.2734 11.0263 27.9688 11.2834 27.682 11.638C27.682 11.709 27.682 11.7799 27.682 11.8508C27.682 11.904 27.682 11.9661 27.682 12.037V21.1593H23.3271V12.888C23.3271 12.1966 23.1389 11.6469 22.7625 11.2391C22.3862 10.8136 21.8844 10.6008 21.2571 10.6008C20.4506 10.6008 19.7696 10.9554 19.214 11.6646V21.1593H14.8591Z" fill="white"/>
    <path d="M43.545 21.3721C42.6131 21.3721 41.7797 21.1948 41.0449 20.8402C40.3281 20.4856 39.7635 19.998 39.3513 19.3774C38.9571 18.7568 38.7599 18.0388 38.7599 17.2232C38.7599 16.3721 38.975 15.654 39.4051 15.0689C39.8352 14.4661 40.4535 14.0139 41.26 13.7125C42.0665 13.3934 43.0342 13.2338 44.1633 13.2338C44.6651 13.2338 45.1759 13.287 45.6956 13.3934C46.2153 13.482 46.7799 13.6416 47.3892 13.8721V12.7551C47.3892 12.0813 47.1652 11.5849 46.7171 11.2657C46.2691 10.9288 45.5791 10.7604 44.6472 10.7604C44.1275 10.7604 43.545 10.8402 42.8998 10.9998C42.2726 11.1416 41.5557 11.381 40.7492 11.7178L39.2438 8.71252C41.484 7.71961 43.6077 7.22315 45.615 7.22315C47.5326 7.22315 49.0201 7.67528 50.0774 8.57954C51.1528 9.48379 51.6904 10.7515 51.6904 12.3827V21.1593H47.3892V19.9625C46.7799 20.459 46.1705 20.8224 45.5612 21.0529C44.9519 21.2657 44.2798 21.3721 43.545 21.3721ZM42.7654 17.1434C42.7654 17.5866 42.9536 17.9324 43.3299 18.1806C43.7063 18.4111 44.226 18.5263 44.8891 18.5263C45.3551 18.5263 45.7942 18.4732 46.2064 18.3668C46.6186 18.2427 47.0128 18.0654 47.3892 17.8349V16.0795C46.9949 15.9909 46.6007 15.92 46.2064 15.8668C45.8121 15.8136 45.4089 15.787 44.9967 15.787C44.2798 15.787 43.7242 15.9022 43.3299 16.1327C42.9536 16.3632 42.7654 16.7001 42.7654 17.1434Z" fill="white"/>
    <path d="M54.9728 21.1593V7.43592H59.3278V10.5476C59.7758 9.39514 60.3045 8.54408 60.9138 7.99443C61.5411 7.44479 62.2669 7.16996 63.0913 7.16996C63.396 7.18769 63.6469 7.21429 63.844 7.24975C64.0412 7.28521 64.2741 7.37386 64.543 7.51571V11.2125C64.2741 11.0707 63.9605 10.9643 63.6021 10.8934C63.2436 10.8224 62.8762 10.787 62.4999 10.787C61.8547 10.787 61.2543 10.9466 60.6988 11.2657C60.1432 11.5671 59.6862 11.9749 59.3278 12.4891V21.1593H54.9728Z" fill="white"/>
    <path d="M73.6664 21.4253C72.0355 21.4253 70.799 21.0529 69.9566 20.3083C69.1143 19.5636 68.6932 18.4643 68.6932 17.0104V10.7604H66.0049V7.43592H68.6932V3.63273L73.0481 2.75507V7.43592H76.7579V10.7604H73.0481V16.1593C73.0481 16.7622 73.1825 17.1877 73.4514 17.4359C73.7381 17.6841 74.213 17.8083 74.8761 17.8083C75.127 17.8083 75.3779 17.7905 75.6288 17.7551C75.8797 17.7196 76.2203 17.6398 76.6504 17.5157V20.9998C76.2561 21.1239 75.7722 21.2214 75.1987 21.2923C74.6252 21.381 74.1145 21.4253 73.6664 21.4253Z" fill="white"/>
    <path d="M87.3994 21.1593L83.6896 7.43592H87.8026L89.7382 15.6274L92.0769 7.43592H95.6523L97.9642 15.6008L99.8728 7.43592H103.878L100.195 21.1593H96.0555L93.7974 13.0742L91.593 21.1593H87.3994Z" fill="white"/>
    <path d="M112.385 21.4253C111.005 21.4253 109.768 21.115 108.675 20.4944C107.582 19.8739 106.713 19.0317 106.068 17.9678C105.44 16.8863 105.127 15.6717 105.127 14.3242C105.127 12.9767 105.44 11.771 106.068 10.7072C106.713 9.62564 107.582 8.77457 108.675 8.15401C109.768 7.53344 110.996 7.22315 112.358 7.22315C113.738 7.22315 114.966 7.53344 116.041 8.15401C117.134 8.77457 117.994 9.62564 118.622 10.7072C119.267 11.771 119.589 12.9767 119.589 14.3242C119.589 15.6717 119.267 16.8863 118.622 17.9678C117.994 19.0317 117.134 19.8739 116.041 20.4944C114.966 21.115 113.747 21.4253 112.385 21.4253ZM112.358 17.8349C112.95 17.8349 113.469 17.6841 113.917 17.3827C114.365 17.0813 114.715 16.6646 114.966 16.1327C115.217 15.6008 115.342 14.998 115.342 14.3242C115.342 13.6327 115.217 13.0299 114.966 12.5157C114.715 11.9838 114.365 11.5671 113.917 11.2657C113.469 10.9643 112.95 10.8136 112.358 10.8136C111.785 10.8136 111.265 10.9643 110.799 11.2657C110.351 11.5671 110.001 11.9838 109.75 12.5157C109.5 13.0299 109.374 13.6327 109.374 14.3242C109.374 14.998 109.5 15.6008 109.75 16.1327C110.001 16.6646 110.351 17.0813 110.799 17.3827C111.265 17.6841 111.785 17.8349 112.358 17.8349Z" fill="white"/>
    <path d="M122.363 21.1593V2.22316L126.718 1.55826V21.1593H122.363Z" fill="white"/>
    <path d="M132.15 21.1593V10.7604H129.274V7.43592H132.15V5.62741C132.15 3.9962 132.625 2.7462 133.575 1.87741C134.525 1.00862 135.896 0.574219 137.688 0.574219C138.064 0.574219 138.468 0.600814 138.898 0.654006C139.346 0.689467 139.713 0.751523 140 0.840176V4.37741C139.606 4.30649 139.292 4.26216 139.059 4.24443C138.826 4.2267 138.584 4.21784 138.333 4.21784C137.724 4.21784 137.267 4.34195 136.962 4.59018C136.658 4.82067 136.505 5.19301 136.505 5.7072V7.43592H140V10.7604H136.505V21.1593H132.15Z" fill="white"/>
</svg>