<svg width="274" height="274" viewBox="0 0 274 274" fill="none" xmlns="http://www.w3.org/2000/svg">
    <rect width="274" height="274" fill="url(#paint0_linear_2601_3716)"/>
    <path d="M84.8793 175.786L84.7686 175.897C83.2747 172.633 82.3341 168.925 81.9468 164.831C82.3341 168.87 83.3854 172.522 84.8793 175.786Z" fill="white"/>
    <path d="M120.401 128.036C127.674 128.036 133.57 122.141 133.57 114.868C133.57 107.595 127.674 101.699 120.401 101.699C113.128 101.699 107.233 107.595 107.233 114.868C107.233 122.141 113.128 128.036 120.401 128.036Z" fill="white"/>
    <path d="M160.183 81.6699H113.817C93.6768 81.6699 81.6702 93.6765 81.6702 113.817V160.183C81.6702 166.214 82.7214 171.47 84.7686 175.897C89.527 186.409 99.7077 192.33 113.817 192.33H160.183C180.323 192.33 192.33 180.323 192.33 160.183V147.513V113.817C192.33 93.6765 180.323 81.6699 160.183 81.6699ZM183.311 139.766C178.996 136.059 172.024 136.059 167.708 139.766L144.691 159.519C140.375 163.226 133.404 163.226 129.088 159.519L127.207 157.97C123.278 154.539 117.026 154.207 112.6 157.195L91.9062 171.083C90.6889 167.985 89.9697 164.388 89.9697 160.183V113.817C89.9697 98.2136 98.2138 89.9694 113.817 89.9694H160.183C175.786 89.9694 184.031 98.2136 184.031 113.817V140.375L183.311 139.766Z" fill="white"/>
    <defs>
        <linearGradient id="paint0_linear_2601_3716" x1="-144" y1="82" x2="274" y2="153.5" gradientUnits="userSpaceOnUse">
            <stop offset="0.385417" stop-color="#9F9D9D"/>
            <stop offset="0.880208" stop-color="#D9D9D9" stop-opacity="0.58"/>
        </linearGradient>
    </defs>
</svg>
