<svg width="127" height="128" viewBox="0 0 127 128" fill="none" xmlns="http://www.w3.org/2000/svg">
    <circle cx="63.5" cy="63.5" r="63.5" fill="#8BF98E"/>
    <path fill-rule="evenodd" clip-rule="evenodd" d="M26.5949 115.566C26.5949 115.566 26.0491 111.082 26.5949 108.202C27.319 104.383 28.7788 100.721 29.5869 96.9246C30.2748 93.693 31.0829 87.1179 31.0829 87.1179C31.0829 87.1179 31.2573 81.6188 32.3296 79.0273C32.8433 77.7858 34.0145 76.6895 34.5736 75.3498C35.3994 73.3711 34.2387 70.8305 35.3216 68.9754C36.1491 67.5579 37.8845 67.5963 39.311 66.0334C39.38 65.9578 38.836 65.4964 38.8123 64.8076C38.8001 64.4527 39.2851 64.0584 39.311 63.5817C39.4521 60.9784 39.2638 59.2698 39.8096 57.2074C40.409 54.9426 42.8016 50.833 42.8016 50.833C42.8016 50.833 44.6081 47.7492 45.7937 46.42C46.3762 45.7669 47.409 45.4884 47.7883 44.7038C48.7882 42.636 47.6736 40.1006 48.0377 37.8391C48.3215 36.0762 49.5337 32.6906 49.5337 32.6906L50.2817 29.5034L53.523 21.4128L56.515 16.5095L58.7591 12.5868C58.7591 12.5868 59.7982 9.2412 61.2524 8.66411C61.8879 8.41189 62.7276 8.71492 63.2471 9.15444C65.7041 11.2331 66.9871 17.9805 66.9871 17.9805C66.9871 17.9805 67.5461 22.1389 68.2338 24.1097C68.7766 25.6653 70.4778 28.5227 70.4778 28.5227C70.4778 28.5227 70.5825 30.6762 71.2258 31.4647C72.0398 32.4625 73.4161 33.1433 74.7165 33.1809C75.3491 33.1992 75.9052 32.7419 76.4618 32.4454C77.7792 31.7437 79.0816 30.9721 80.2018 29.9937C81.8401 28.5628 83.4376 26.8135 84.6898 24.8452C85.5601 23.4774 86.1204 22.2995 87.4325 21.658C88.3318 21.2184 88.6792 24.3549 88.6792 24.3549C88.6792 24.3549 88.6391 29.1603 88.4299 31.4647C88.2236 33.7368 87.4325 38.0843 87.4325 38.0843L87.1832 40.0456C87.1832 40.0456 87.5946 43.0004 87.6819 44.4586C87.7608 45.779 87.6819 48.3813 87.6819 48.3813C87.6819 48.3813 87.6782 48.4905 87.681 48.657C87.6874 49.0454 87.7285 49.7455 87.9312 50.0975C88.8429 51.6809 90.9792 53.0054 92.9179 54.5105C96.3644 57.1862 99.8992 59.6591 99.8992 59.6591C99.8992 59.6591 100.654 60.5819 100.647 61.1301C100.638 61.9411 99.6813 62.3716 99.4006 63.0914C99.2537 63.4681 99.2777 64.1577 99.1878 64.2835C98.7593 64.8826 98.4032 65.2979 98.4032 65.2979C98.4032 65.2979 97.6441 66.4999 97.1566 67.0141C95.4659 68.7975 93.7301 70.7821 91.4219 71.6723C90.2013 72.143 88.1441 72.144 86.4352 72.1626C84.3465 72.1854 83.8502 71.3202 82.9445 72.1626C82.4438 72.6284 82.9557 73.7014 82.9445 74.6143C82.9313 75.686 82.4918 75.9033 82.4458 76.5756C82.3953 77.314 82.9832 78.0985 82.6952 78.7822C82.2879 79.7491 80.7552 79.8495 80.2018 80.7435C79.9815 81.0995 80.2003 81.6313 79.9525 81.9693C79.5607 82.5039 78.647 82.453 78.2071 82.95C77.6195 83.614 77.4649 84.558 77.2098 85.4017C77.089 85.8011 76.9576 86.2108 76.9605 86.6275C76.9686 87.7976 77.3514 88.9437 77.7085 90.0599C78.2227 91.667 79.2945 93.0819 79.7032 94.7181C80.1805 96.6294 80.3848 98.6422 80.2018 100.602C80.1152 101.53 79.4554 102.367 79.4538 103.299C79.4502 105.499 80.971 107.484 81.1992 109.673C81.4877 112.442 80.8621 115.23 80.7005 118.009C80.6149 119.48 80.2748 120.959 80.4512 122.422C80.5533 123.269 81.1992 124.874 81.1992 124.874C81.1992 124.874 73.3515 126.953 66.3171 127.241C60.4257 127.482 56.2462 127.139 52.0128 126.448C48.1882 125.822 42.3928 124.446 37.7085 122.422C31.4992 119.74 26.5949 115.566 26.5949 115.566Z" fill="#171717"/>
</svg>
