<svg width="125" height="19" viewBox="0 0 125 19" fill="none" xmlns="http://www.w3.org/2000/svg">
    <path d="M5.68853 19C4.56842 19 3.52033 18.8707 2.54424 18.6122C1.56815 18.3537 0.720067 17.9741 0 17.4732L1.70416 14.8559C2.60024 15.3244 3.33631 15.6556 3.91236 15.8495C4.50442 16.0272 5.09647 16.1161 5.68853 16.1161C6.24858 16.1161 6.68062 16.0272 6.98465 15.8495C7.30468 15.6556 7.46469 15.4052 7.46469 15.0982C7.46469 14.8559 7.36868 14.662 7.17666 14.5166C7.00065 14.3712 6.71262 14.2662 6.31258 14.2015L3.93636 13.7653C2.73625 13.5391 1.82417 13.119 1.20011 12.5051C0.592055 11.8912 0.288027 11.0995 0.288027 10.1301C0.288027 9.27381 0.496046 8.54677 0.912084 7.94898C1.32812 7.33503 1.92018 6.8665 2.68825 6.54337C3.47232 6.22024 4.40041 6.05867 5.47251 6.05867C6.33659 6.05867 7.19267 6.17985 8.04074 6.42219C8.88882 6.66454 9.7129 7.01998 10.513 7.48852L8.73681 9.98469C8.11275 9.6131 7.50469 9.34651 6.91264 9.18495C6.33659 9.00723 5.76053 8.91837 5.18448 8.91837C4.72044 8.91837 4.3524 8.99107 4.08038 9.13648C3.82435 9.28189 3.69634 9.49192 3.69634 9.76658C3.69634 10.0251 3.78435 10.219 3.96037 10.3482C4.15238 10.4775 4.48842 10.5825 4.96846 10.6633L7.29668 11.0995C8.52879 11.3257 9.45687 11.7457 10.0809 12.3597C10.705 12.9736 11.017 13.7572 11.017 14.7105C11.017 15.5183 10.785 16.2534 10.321 16.9158C9.85691 17.5621 9.22485 18.071 8.42478 18.4426C7.62471 18.8142 6.71262 19 5.68853 19Z" fill="white"/>
    <path d="M13.267 18.7577V6.25255H17.1554V8.2398C17.6194 7.52891 18.1555 6.98767 18.7635 6.61607C19.3876 6.24447 20.0757 6.05867 20.8277 6.05867C21.6278 6.05867 22.3319 6.26871 22.9399 6.68878C23.548 7.10884 24.004 7.67432 24.3081 8.38521C24.7881 7.62585 25.3722 7.0523 26.0602 6.66454C26.7483 6.26063 27.5164 6.05867 28.3644 6.05867C29.1325 6.05867 29.8046 6.24447 30.3806 6.61607C30.9727 6.98767 31.4287 7.50468 31.7487 8.16709C32.0848 8.82951 32.2528 9.58886 32.2528 10.4452V18.7577H28.3644V11.2207C28.3644 10.5906 28.1964 10.0897 27.8604 9.71811C27.5244 9.33036 27.0763 9.13648 26.5163 9.13648C26.1642 9.13648 25.8362 9.21726 25.5322 9.37883C25.2442 9.52423 24.9721 9.7585 24.7161 10.0816C24.7161 10.1463 24.7161 10.2109 24.7161 10.2755C24.7161 10.324 24.7161 10.3805 24.7161 10.4452V18.7577H20.8277V11.2207C20.8277 10.5906 20.6597 10.0897 20.3237 9.71811C19.9877 9.33036 19.5396 9.13648 18.9796 9.13648C18.2595 9.13648 17.6514 9.45961 17.1554 10.1059V18.7577H13.267Z" fill="white"/>
    <path d="M38.8795 18.9515C38.0474 18.9515 37.3033 18.79 36.6473 18.4668C36.0072 18.1437 35.5032 17.6994 35.1351 17.1339C34.7831 16.5685 34.6071 15.9141 34.6071 15.1709C34.6071 14.3954 34.7991 13.7411 35.1831 13.2079C35.5672 12.6586 36.1192 12.2466 36.8393 11.9719C37.5593 11.6811 38.4234 11.5357 39.4315 11.5357C39.8796 11.5357 40.3356 11.5842 40.7996 11.6811C41.2637 11.7619 41.7677 11.9073 42.3118 12.1173V11.0995C42.3118 10.4855 42.1118 10.0332 41.7117 9.74235C41.3117 9.43538 40.6956 9.28189 39.8636 9.28189C39.3995 9.28189 38.8795 9.35459 38.3034 9.5C37.7434 9.62925 37.1033 9.84736 36.3832 10.1543L35.0391 7.41582C37.0393 6.51105 38.9355 6.05867 40.7276 6.05867C42.4398 6.05867 43.7679 6.47066 44.712 7.29464C45.6721 8.11862 46.1521 9.27381 46.1521 10.7602V18.7577H42.3118V17.6671C41.7677 18.1195 41.2237 18.4507 40.6796 18.6607C40.1356 18.8546 39.5355 18.9515 38.8795 18.9515ZM38.1834 15.0982C38.1834 15.5021 38.3514 15.8172 38.6875 16.0434C39.0235 16.2534 39.4875 16.3584 40.0796 16.3584C40.4956 16.3584 40.8877 16.3099 41.2557 16.213C41.6237 16.0999 41.9758 15.9384 42.3118 15.7283V14.1288C41.9598 14.048 41.6077 13.9834 41.2557 13.9349C40.9037 13.8865 40.5436 13.8622 40.1756 13.8622C39.5355 13.8622 39.0395 13.9673 38.6875 14.1773C38.3514 14.3873 38.1834 14.6943 38.1834 15.0982Z" fill="white"/>
    <path d="M49.0829 18.7577V6.25255H52.9712V9.08801C53.3713 8.03784 53.8433 7.26233 54.3873 6.76148C54.9474 6.26063 55.5955 6.0102 56.3315 6.0102C56.6035 6.02636 56.8276 6.0506 57.0036 6.08291C57.1796 6.11522 57.3876 6.196 57.6276 6.32526V9.69388C57.3876 9.56463 57.1076 9.46769 56.7876 9.40306C56.4675 9.33844 56.1395 9.30612 55.8035 9.30612C55.2274 9.30612 54.6914 9.45153 54.1953 9.74235C53.6993 10.017 53.2912 10.3886 52.9712 10.8571V18.7577H49.0829Z" fill="white"/>
    <path d="M65.7736 19C64.3175 19 63.2133 18.6607 62.4613 17.9821C61.7092 17.3036 61.3332 16.3019 61.3332 14.977V9.28189H58.933V6.25255H61.3332V2.78699L65.2215 1.98724V6.25255H68.5338V9.28189H65.2215V14.2015C65.2215 14.7509 65.3415 15.1386 65.5816 15.3648C65.8376 15.591 66.2616 15.7041 66.8537 15.7041C67.0777 15.7041 67.3017 15.6879 67.5257 15.6556C67.7498 15.6233 68.0538 15.5506 68.4378 15.4375V18.6122C68.0858 18.7253 67.6538 18.8142 67.1417 18.8788C66.6297 18.9596 66.1736 19 65.7736 19Z" fill="white"/>
    <path d="M78.0352 18.7577L74.7229 6.25255H78.3952L80.1234 13.7168L82.2115 6.25255H85.4038L87.468 13.6926L89.1722 6.25255H92.7485L89.4602 18.7577H85.7639L83.7477 11.3903L81.7795 18.7577H78.0352Z" fill="white"/>
    <path d="M100.344 19C99.1116 19 98.0075 18.7173 97.0314 18.1518C96.0553 17.5863 95.2793 16.8189 94.7032 15.8495C94.1431 14.8639 93.8631 13.7572 93.8631 12.5293C93.8631 11.3014 94.1431 10.2028 94.7032 9.23342C95.2793 8.24787 96.0553 7.47236 97.0314 6.90689C98.0075 6.34141 99.1036 6.05867 100.32 6.05867C101.552 6.05867 102.648 6.34141 103.608 6.90689C104.584 7.47236 105.352 8.24787 105.912 9.23342C106.488 10.2028 106.776 11.3014 106.776 12.5293C106.776 13.7572 106.488 14.8639 105.912 15.8495C105.352 16.8189 104.584 17.5863 103.608 18.1518C102.648 18.7173 101.56 19 100.344 19ZM100.32 15.7283C100.848 15.7283 101.312 15.591 101.712 15.3163C102.112 15.0417 102.424 14.662 102.648 14.1773C102.872 13.6926 102.984 13.1433 102.984 12.5293C102.984 11.8992 102.872 11.3499 102.648 10.8814C102.424 10.3967 102.112 10.017 101.712 9.74235C101.312 9.46769 100.848 9.33036 100.32 9.33036C99.8077 9.33036 99.3436 9.46769 98.9276 9.74235C98.5275 10.017 98.2155 10.3967 97.9915 10.8814C97.7675 11.3499 97.6555 11.8992 97.6555 12.5293C97.6555 13.1433 97.7675 13.6926 97.9915 14.1773C98.2155 14.662 98.5275 15.0417 98.9276 15.3163C99.3436 15.591 99.8077 15.7283 100.32 15.7283Z" fill="white"/>
    <path d="M109.252 18.7577V1.50255L113.141 0.896683V18.7577H109.252Z" fill="white"/>
    <path d="M117.991 18.7577V9.28189H115.423V6.25255H117.991V4.60459C117.991 3.1182 118.415 1.97917 119.263 1.1875C120.112 0.395833 121.336 0 122.936 0C123.272 0 123.632 0.0242345 124.016 0.0727042C124.416 0.105017 124.744 0.161564 125 0.242346V3.46556C124.648 3.40094 124.368 3.36054 124.16 3.34439C123.952 3.32823 123.736 3.32015 123.512 3.32015C122.968 3.32015 122.56 3.43325 122.288 3.65944C122.016 3.86947 121.88 4.20876 121.88 4.6773V6.25255H125V9.28189H121.88V18.7577H117.991Z" fill="white"/>
</svg>
