<svg width="645" height="96" viewBox="0 0 645 96" fill="none" xmlns="http://www.w3.org/2000/svg">
    <path d="M29.3528 96C23.5731 96 18.1649 95.3469 13.1283 94.0408C8.09163 92.7347 3.71554 90.8163 0 88.2857L8.79345 75.0612C13.4172 77.4286 17.2154 79.1021 20.1878 80.0816C23.2428 80.9796 26.2978 81.4286 29.3528 81.4286C32.2427 81.4286 34.472 80.9796 36.0408 80.0816C37.6921 79.1021 38.5178 77.8367 38.5178 76.2857C38.5178 75.0612 38.0224 74.0816 37.0316 73.3469C36.1233 72.6123 34.6371 72.0816 32.5729 71.7551L20.3116 69.551C14.1191 68.4082 9.41271 66.2857 6.19257 63.1837C3.055 60.0816 1.48622 56.0816 1.48622 51.1837C1.48622 46.8571 2.5596 43.1837 4.70636 40.1633C6.85311 37.0612 9.90812 34.6939 13.8714 33.0612C17.9172 31.4286 22.7061 30.6122 28.2381 30.6122C32.6968 30.6122 37.1142 31.2245 41.4902 32.449C45.8663 33.6735 50.1186 35.4694 54.2469 37.8367L45.0819 50.449C41.8618 48.5714 38.7242 47.2245 35.6692 46.4082C32.6968 45.5102 29.7243 45.0612 26.7519 45.0612C24.3575 45.0612 22.4584 45.4286 21.0547 46.1633C19.7337 46.898 19.0731 47.9592 19.0731 49.3469C19.0731 50.6531 19.5272 51.6327 20.4355 52.2857C21.4263 52.9388 23.1602 53.4694 25.6373 53.8776L37.6508 56.0816C44.0086 57.2245 48.7975 59.3469 52.0176 62.449C55.2378 65.551 56.8478 69.5102 56.8478 74.3265C56.8478 78.4082 55.6506 82.1225 53.2561 85.4694C50.8617 88.7347 47.6002 91.3061 43.4719 93.1837C39.3435 95.0612 34.6371 96 29.3528 96Z" fill="#171717"/>
    <path d="M68.4579 94.7755V31.5918H88.5219V41.6327C90.9163 38.0408 93.6823 35.3061 96.8199 33.4286C100.04 31.551 103.59 30.6122 107.471 30.6122C111.6 30.6122 115.232 31.6735 118.37 33.7959C121.508 35.9184 123.861 38.7755 125.43 42.3674C127.907 38.5306 130.92 35.6327 134.471 33.6735C138.021 31.6327 141.984 30.6122 146.36 30.6122C150.324 30.6122 153.792 31.551 156.764 33.4286C159.819 35.3061 162.172 37.9184 163.824 41.2653C165.557 44.6122 166.424 48.449 166.424 52.7755V94.7755H146.36V56.6939C146.36 53.5102 145.494 50.9796 143.76 49.102C142.026 47.1429 139.714 46.1633 136.824 46.1633C135.007 46.1633 133.315 46.5714 131.746 47.3878C130.26 48.1225 128.856 49.3061 127.535 50.9388C127.535 51.2653 127.535 51.5918 127.535 51.9184C127.535 52.1633 127.535 52.449 127.535 52.7755V94.7755H107.471V56.6939C107.471 53.5102 106.604 50.9796 104.87 49.102C103.136 47.1429 100.824 46.1633 97.9346 46.1633C94.219 46.1633 91.0815 47.7959 88.5219 51.0612V94.7755H68.4579Z" fill="#171717"/>
    <path d="M200.618 95.7551C196.325 95.7551 192.485 94.9388 189.1 93.3061C185.797 91.6735 183.196 89.4286 181.297 86.5714C179.481 83.7143 178.572 80.4082 178.572 76.6531C178.572 72.7347 179.563 69.4286 181.545 66.7347C183.527 63.9592 186.375 61.8776 190.091 60.4898C193.806 59.0204 198.265 58.2857 203.467 58.2857C205.779 58.2857 208.132 58.5306 210.526 59.0204C212.921 59.4286 215.522 60.1633 218.329 61.2245V56.0816C218.329 52.9796 217.297 50.6939 215.233 49.2245C213.168 47.6735 209.989 46.898 205.696 46.898C203.302 46.898 200.618 47.2653 197.646 48C194.756 48.6531 191.453 49.7551 187.738 51.3061L180.802 37.4694C191.123 32.898 200.907 30.6122 210.155 30.6122C218.989 30.6122 225.842 32.6939 230.714 36.8571C235.668 41.0204 238.145 46.8571 238.145 54.3674V94.7755H218.329V89.2653C215.522 91.551 212.714 93.2245 209.907 94.2857C207.1 95.2653 204.003 95.7551 200.618 95.7551ZM197.026 76.2857C197.026 78.3265 197.893 79.9184 199.627 81.0612C201.361 82.1225 203.756 82.6531 206.811 82.6531C208.957 82.6531 210.98 82.4082 212.879 81.9184C214.778 81.3469 216.595 80.5306 218.329 79.4694V71.3878C216.512 70.9796 214.696 70.6531 212.879 70.4082C211.063 70.1633 209.205 70.0408 207.306 70.0408C204.003 70.0408 201.444 70.5714 199.627 71.6327C197.893 72.6939 197.026 74.2449 197.026 76.2857Z" fill="#171717"/>
    <path d="M253.268 94.7755V31.5918H273.331V45.9184C275.396 40.6122 277.831 36.6939 280.639 34.1633C283.529 31.6327 286.873 30.3673 290.671 30.3673C292.074 30.449 293.23 30.5714 294.139 30.7347C295.047 30.898 296.12 31.3061 297.359 31.9592V48.9796C296.12 48.3265 294.675 47.8367 293.024 47.5102C291.372 47.1837 289.68 47.0204 287.946 47.0204C284.974 47.0204 282.207 47.7551 279.648 49.2245C277.088 50.6122 274.983 52.4898 273.331 54.8571V94.7755H253.268Z" fill="#171717"/>
    <path d="M339.392 96C331.878 96 326.181 94.2857 322.3 90.8571C318.419 87.4286 316.479 82.3673 316.479 75.6735V46.898H304.094V31.5918H316.479V14.0816L336.543 10.0408V31.5918H353.635V46.898H336.543V71.7551C336.543 74.5306 337.162 76.4898 338.401 77.6327C339.722 78.7755 341.91 79.3469 344.965 79.3469C346.121 79.3469 347.277 79.2653 348.433 79.102C349.589 78.9388 351.158 78.5714 353.139 78V94.0408C351.323 94.6123 349.093 95.0612 346.451 95.3878C343.809 95.7959 341.456 96 339.392 96Z" fill="#171717"/>
    <path d="M402.661 94.7755L385.57 31.5918H404.519L413.436 69.3061L424.212 31.5918H440.684L451.335 69.1837L460.128 31.5918H478.582L461.615 94.7755H442.542L432.138 57.551L421.982 94.7755H402.661Z" fill="#171717"/>
    <path d="M517.774 96C511.416 96 505.719 94.5714 500.682 91.7143C495.645 88.8571 491.641 84.9796 488.668 80.0816C485.779 75.1021 484.334 69.5102 484.334 63.3061C484.334 57.102 485.779 51.551 488.668 46.6531C491.641 41.6735 495.645 37.7551 500.682 34.898C505.719 32.0408 511.375 30.6122 517.65 30.6122C524.007 30.6122 529.663 32.0408 534.617 34.898C539.654 37.7551 543.617 41.6735 546.507 46.6531C549.479 51.551 550.966 57.102 550.966 63.3061C550.966 69.5102 549.479 75.1021 546.507 80.0816C543.617 84.9796 539.654 88.8571 534.617 91.7143C529.663 94.5714 524.049 96 517.774 96ZM517.65 79.4694C520.375 79.4694 522.769 78.7755 524.833 77.3878C526.897 76 528.507 74.0816 529.663 71.6327C530.819 69.1837 531.397 66.4082 531.397 63.3061C531.397 60.1225 530.819 57.3469 529.663 54.9796C528.507 52.5306 526.897 50.6122 524.833 49.2245C522.769 47.8367 520.375 47.1429 517.65 47.1429C515.008 47.1429 512.613 47.8367 510.466 49.2245C508.402 50.6122 506.792 52.5306 505.636 54.9796C504.48 57.3469 503.902 60.1225 503.902 63.3061C503.902 66.4082 504.48 69.1837 505.636 71.6327C506.792 74.0816 508.402 76 510.466 77.3878C512.613 78.7755 515.008 79.4694 517.65 79.4694Z" fill="#171717"/>
    <path d="M563.743 94.7755V7.59184L583.807 4.53061V94.7755H563.743Z" fill="#171717"/>
    <path d="M608.835 94.7755V46.898H595.583V31.5918H608.835V23.2653C608.835 15.7551 611.023 10 615.399 6C619.776 2 626.092 0 634.349 0C636.083 0 637.94 0.122448 639.922 0.367348C641.986 0.530611 643.679 0.816324 645 1.22449V17.5102C643.183 17.1837 641.739 16.9796 640.665 16.898C639.592 16.8163 638.477 16.7755 637.321 16.7755C634.514 16.7755 632.408 17.3469 631.005 18.4898C629.601 19.551 628.899 21.2653 628.899 23.6327V31.5918H645V46.898H628.899V94.7755H608.835Z" fill="#171717"/>
</svg>
